<?xml version="1.0" encoding="UTF-8"?>
<svg width="600" height="600" viewBox="0 0 600 600" xmlns="http://www.w3.org/2000/svg">
  <defs>
    <linearGradient id="bggrad" x1="0" x2="1">
      <stop offset="0" stop-color="#472B6B" />
      <stop offset="1" stop-color="#2A1B4A" />
    </linearGradient>
    <filter id="soft" x="-20%" y="-20%" width="140%" height="140%">
      <feGaussianBlur stdDeviation="6" result="b"/>
      <feBlend in="SourceGraphic" in2="b"/>
    </filter>
  </defs>
  <rect width="100%" height="100%" rx="40" fill="url(#bggrad)"/>
  <g transform="translate(150,240)">
    <rect x="120" y="-30" width="210" height="150" rx="18" fill="#6A2C8A" stroke="#4A1B5E" stroke-width="6"/>
    <rect x="100" y="-60" width="251" height="30" rx="10" fill="#7D3AA5" stroke="#4A1B5E" stroke-width="5" transform="rotate(-18 225 -60)"/>
    <g fill="#FFD84D" stroke="#E6C23A" stroke-width="2">
      <text x="-20" y="10" font-family="sans-serif" font-size="32" font-weight="700">&lt;JS&gt;</text>
      <text x="320" y="30" font-family="sans-serif" font-size="28" font-weight="700">HTML</text>
      <text x="220" y="-80" font-family="sans-serif" font-size="26" font-weight="700">CSS</text>
    </g>
  </g>
  <g transform="translate(80,80)" filter="url(#soft)">
    <path d="M150 320 q60 -140 160 -60 q40 80 -60 160 q-80 20 -200 -100" fill="#f5efe6" />
    <ellipse cx="350" cy="170" rx="80" ry="95" fill="#6b3f2b"/>
    <ellipse cx="325" cy="160" rx="12" ry="8" fill="#b266ff"/>
    <ellipse cx="375" cy="160" rx="12" ry="8" fill="#b266ff"/>
    <path d="M320 190 q30 30 60 0" stroke="#ffb3a7" stroke-width="5" fill="none" stroke-linecap="round"/>
    <g fill="#2b1a12">
      <circle cx="300" cy="110" r="20"/>
      <circle cx="330" cy="90" r="24"/>
      <circle cx="365" cy="100" r="26"/>
      <circle cx="390" cy="130" r="28"/>
      <circle cx="290" cy="140" r="22"/>
      <circle cx="250" cy="120" r="20"/>
    </g>
    <path d="M290 240 q40 -10 90 -20 q-10 30 -35 45 q-45 10 -55 -5" fill="#6b3f2b"/>
  </g>
  <text x="40" y="540" font-family="Segoe UI, Roboto, sans-serif" font-size="28" fill="#FFD84D" font-weight="700">Pandora</text>
</svg>
